REM DIRINDEX 1\2,1\3,1\4
REM DIRNAME cjc151,folder01,folder02,folder03
TITLE ""
FILE "074 074_TOEFL_3900.mp3" MP3
  TRACK 01 AUDIO
    TITLE "2:cjc151_3206"
    INDEX 01 00:00:00
  TRACK 02 AUDIO
    TITLE "0:"
    INDEX 01 00:00:74
  TRACK 03 AUDIO
    TITLE "3:cjc151_3207"
    INDEX 01 00:02:47
  TRACK 04 AUDIO
    TITLE "0:"
    INDEX 01 00:06:22
  TRACK 05 AUDIO
    TITLE "2:cjc151_3208"
    INDEX 01 00:07:74
  TRACK 06 AUDIO
    TITLE "0:"
    INDEX 01 00:08:72
  TRACK 07 AUDIO
    TITLE "3:cjc151_3209"
    INDEX 01 00:10:61
  TRACK 08 AUDIO
    TITLE "0:"
    INDEX 01 00:13:55
  TRACK 09 AUDIO
    TITLE "2:cjc151_3210"
    INDEX 01 00:15:34
  TRACK 10 AUDIO
    TITLE "0:"
    INDEX 01 00:16:32
  TRACK 11 AUDIO
    TITLE "3:cjc151_3211"
    INDEX 01 00:18:29
  TRACK 12 AUDIO
    TITLE "0:"
    INDEX 01 00:21:51
  TRACK 13 AUDIO
    TITLE "2:cjc151_3212"
    INDEX 01 00:23:28
  TRACK 14 AUDIO
    TITLE "0:"
    INDEX 01 00:24:41
  TRACK 15 AUDIO
    TITLE "3:cjc151_3213"
    INDEX 01 00:26:18
  TRACK 16 AUDIO
    TITLE "0:"
    INDEX 01 00:29:72
  TRACK 17 AUDIO
    TITLE "2:cjc151_3214"
    INDEX 01 00:31:49
  TRACK 18 AUDIO
    TITLE "0:"
    INDEX 01 00:32:41
  TRACK 19 AUDIO
    TITLE "3:cjc151_3215"
    INDEX 01 00:34:22
  TRACK 20 AUDIO
    TITLE "0:"
    INDEX 01 00:37:22
  TRACK 21 AUDIO
    TITLE "2:cjc151_3216"
    INDEX 01 00:39:02
  TRACK 22 AUDIO
    TITLE "0:"
    INDEX 01 00:40:01
  TRACK 23 AUDIO
    TITLE "3:cjc151_3217"
    INDEX 01 00:41:51
  TRACK 24 AUDIO
    TITLE "0:"
    INDEX 01 00:45:02
  TRACK 25 AUDIO
    TITLE "2:cjc151_3218"
    INDEX 01 00:46:56
  TRACK 26 AUDIO
    TITLE "0:"
    INDEX 01 00:47:58
  TRACK 27 AUDIO
    TITLE "3:cjc151_3219"
    INDEX 01 00:49:31
  TRACK 28 AUDIO
    TITLE "0:"
    INDEX 01 00:53:19
  TRACK 29 AUDIO
    TITLE "2:cjc151_3220"
    INDEX 01 00:54:72
  TRACK 30 AUDIO
    TITLE "0:"
    INDEX 01 00:55:69
  TRACK 31 AUDIO
    TITLE "3:cjc151_3221"
    INDEX 01 00:57:48
  TRACK 32 AUDIO
    TITLE "0:"
    INDEX 01 01:00:72
  TRACK 33 AUDIO
    TITLE "2:cjc151_3222"
    INDEX 01 01:02:54
  TRACK 34 AUDIO
    TITLE "0:"
    INDEX 01 01:04:03
  TRACK 35 AUDIO
    TITLE "3:cjc151_3223"
    INDEX 01 01:05:50
  TRACK 36 AUDIO
    TITLE "0:"
    INDEX 01 01:10:33
  TRACK 37 AUDIO
    TITLE "2:cjc151_3224"
    INDEX 01 01:12:13
  TRACK 38 AUDIO
    TITLE "0:"
    INDEX 01 01:13:22
  TRACK 39 AUDIO
    TITLE "3:cjc151_3225"
    INDEX 01 01:15:01
  TRACK 40 AUDIO
    TITLE "0:"
    INDEX 01 01:18:60
  TRACK 41 AUDIO
    TITLE "2:cjc151_3226"
    INDEX 01 01:20:38
  TRACK 42 AUDIO
    TITLE "0:"
    INDEX 01 01:21:35
  TRACK 43 AUDIO
    TITLE "3:cjc151_3227"
    INDEX 01 01:23:20
  TRACK 44 AUDIO
    TITLE "0:"
    INDEX 01 01:27:28
  TRACK 45 AUDIO
    TITLE "2:cjc151_3228"
    INDEX 01 01:29:05
  TRACK 46 AUDIO
    TITLE "0:"
    INDEX 01 01:30:26
  TRACK 47 AUDIO
    TITLE "3:cjc151_3229"
    INDEX 01 01:32:06
  TRACK 48 AUDIO
    TITLE "0:"
    INDEX 01 01:35:31
  TRACK 49 AUDIO
    TITLE "2:cjc151_3230"
    INDEX 01 01:37:07
  TRACK 50 AUDIO
    TITLE "0:"
    INDEX 01 01:38:00
  TRACK 51 AUDIO
    TITLE "3:cjc151_3231"
    INDEX 01 01:39:53
  TRACK 52 AUDIO
    TITLE "0:"
    INDEX 01 01:42:30
  TRACK 53 AUDIO
    TITLE "2:cjc151_3232"
    INDEX 01 01:44:19
  TRACK 54 AUDIO
    TITLE "0:"
    INDEX 01 01:45:06
  TRACK 55 AUDIO
    TITLE "3:cjc151_3233"
    INDEX 01 01:46:59
  TRACK 56 AUDIO
    TITLE "0:"
    INDEX 01 01:51:27
  TRACK 57 AUDIO
    TITLE "2:cjc151_3234"
    INDEX 01 01:53:06
  TRACK 58 AUDIO
    TITLE "0:"
    INDEX 01 01:54:01
  TRACK 59 AUDIO
    TITLE "3:cjc151_3235"
    INDEX 01 01:55:56
  TRACK 60 AUDIO
    TITLE "0:"
    INDEX 01 01:59:16
  TRACK 61 AUDIO
    TITLE "2:cjc151_3236"
    INDEX 01 02:00:71
  TRACK 62 AUDIO
    TITLE "0:"
    INDEX 01 02:01:68
  TRACK 63 AUDIO
    TITLE "3:cjc151_3237"
    INDEX 01 02:03:45
  TRACK 64 AUDIO
    TITLE "0:"
    INDEX 01 02:07:69
  TRACK 65 AUDIO
    TITLE "2:cjc151_3238"
    INDEX 01 02:09:48
  TRACK 66 AUDIO
    TITLE "0:"
    INDEX 01 02:10:55
  TRACK 67 AUDIO
    TITLE "3:cjc151_3239"
    INDEX 01 02:12:35
  TRACK 68 AUDIO
    TITLE "0:"
    INDEX 01 02:16:05
  TRACK 69 AUDIO
    TITLE "2:cjc151_3240"
    INDEX 01 02:17:63
  TRACK 70 AUDIO
    TITLE "0:"
    INDEX 01 02:18:72
  TRACK 71 AUDIO
    TITLE "3:cjc151_3241"
    INDEX 01 02:20:50
  TRACK 72 AUDIO
    TITLE "0:"
    INDEX 01 02:24:18
  TRACK 73 AUDIO
    TITLE "2:cjc151_3242"
    INDEX 01 02:25:74
  TRACK 74 AUDIO
    TITLE "0:"
    INDEX 01 02:26:62
  TRACK 75 AUDIO
    TITLE "3:cjc151_3243"
    INDEX 01 02:28:41
  TRACK 76 AUDIO
    TITLE "0:"
    INDEX 01 02:31:73
  TRACK 77 AUDIO
    TITLE "2:cjc151_3244"
    INDEX 01 02:33:52
  TRACK 78 AUDIO
    TITLE "0:"
    INDEX 01 02:34:48
  TRACK 79 AUDIO
    TITLE "3:cjc151_3245"
    INDEX 01 02:36:25
  TRACK 80 AUDIO
    TITLE "0:"
    INDEX 01 02:40:66
  TRACK 81 AUDIO
    TITLE "2:cjc151_3246"
    INDEX 01 02:42:32
  TRACK 82 AUDIO
    TITLE "0:"
    INDEX 01 02:43:49
  TRACK 83 AUDIO
    TITLE "3:cjc151_3247"
    INDEX 01 02:45:28
  TRACK 84 AUDIO
    TITLE "0:"
    INDEX 01 02:49:59
  TRACK 85 AUDIO
    TITLE "2:cjc151_3248"
    INDEX 01 02:51:39
  TRACK 86 AUDIO
    TITLE "0:"
    INDEX 01 02:52:56
  TRACK 87 AUDIO
    TITLE "3:cjc151_3249"
    INDEX 01 02:54:31
  TRACK 88 AUDIO
    TITLE "0:"
    INDEX 01 02:57:74
